# .PCD v0.7 - Point Cloud Data file format
VERSION 0.7
FIELDS x y z
SIZE 4 4 4
TYPE F F F
COUNT 1 1 1
WIDTH 2226
HEIGHT 1
VIEWPOINT 0 0 0 1 0 0 0
POINTS 2226
DATA ascii
-3.2082901 -1.1187844 0.029999999
-3.2082901 -1.1187844 0.079812497
-3.2082901 -1.1187844 0.12962499
-3.2082901 -1.1187844 0.1794375
-3.2082901 -1.1187844 0.22925
-3.2082901 -1.1187844 0.27906248
-3.2082901 -1.1187844 0.32887501
-3.2082901 -1.1187844 0.3786875
-3.2082901 -1.1187844 0.4285
-3.2082901 -1.1187844 0.47831249
-3.2082901 -1.1187844 0.52812499
-3.2082901 -1.1187844 0.57793748
-3.2082901 -1.1187844 0.62774998
-3.2082901 -1.1187844 0.67756248
-3.2082901 -1.1187844 0.72737497
-3.2082901 -1.1187844 0.77718747
-3.2082901 -1.1187844 0.82699996
-3.2082901 -1.1187844 0.87681246
-3.2082901 -1.1187844 0.92662495
-3.2082901 -1.1187844 0.97643745
-3.2082901 -1.1187844 1.02625
-3.2082901 -1.1685081 0.97643745
-3.2082901 -1.1685081 1.02625
-3.2082901 -1.2182317 0.97643745
-3.2082901 -1.2182317 1.02625
-3.2082901 -1.2679558 0.97643745
-3.2082901 -1.2679558 1.02625
-3.2082901 -1.3176794 0.97643745
-3.2082901 -1.3176794 1.02625
-3.2082901 -1.367403 0.97643745
-3.2082901 -1.367403 1.02625
-3.2082901 -1.4171271 0.97643745
-3.2082901 -1.4171271 1.02625
-3.2082901 -1.4668508 0.97643745
-3.2082901 -1.4668508 1.02625
-3.2082901 -1.5165744 0.97643745
-3.2082901 -1.5165744 1.02625
-3.2082901 -1.566298 0.97643745
-3.2082901 -1.566298 1.02625
-3.2082901 -1.6160221 0.97643745
-3.2082901 -1.6160221 1.02625
-3.2082901 -1.6657457 0.97643745
-3.2082901 -1.6657457 1.02625
-3.2082901 -1.7154694 0.97643745
-3.2082901 -1.7154694 1.02625
-3.2082901 -1.765193 0.97643745
-3.2082901 -1.765193 1.02625
-3.2082901 -1.8149171 0.97643745
-3.2082901 -1.8149171 1.02625
-3.2082901 -1.8646407 0.029999999
-3.2082901 -1.8646407 0.079812497
-3.2082901 -1.8646407 0.12962499
-3.2082901 -1.8646407 0.1794375
-3.2082901 -1.8646407 0.22925
-3.2082901 -1.8646407 0.27906248
-3.2082901 -1.8646407 0.32887501
-3.2082901 -1.8646407 0.3786875
-3.2082901 -1.8646407 0.4285
-3.2082901 -1.8646407 0.47831249
-3.2082901 -1.8646407 0.52812499
-3.2082901 -1.8646407 0.57793748
-3.2082901 -1.8646407 0.62774998
-3.2082901 -1.8646407 0.67756248
-3.2082901 -1.8646407 0.72737497
-3.2082901 -1.8646407 0.77718747
-3.2082901 -1.8646407 0.82699996
-3.2082901 -1.8646407 0.87681246
-3.2082901 -1.8646407 0.92662495
-3.2082901 -1.8646407 0.97643745
-3.2082901 -1.8646407 1.02625
-3.1585493 -1.1187844 0.029999999
-3.1585493 -1.1187844 0.079812497
-3.1585493 -1.1187844 0.12962499
-3.1585493 -1.1187844 0.1794375
-3.1585493 -1.1187844 0.22925
-3.1585493 -1.1187844 0.27906248
-3.1585493 -1.1187844 0.32887501
-3.1585493 -1.1187844 0.3786875
-3.1585493 -1.1187844 0.4285
-3.1585493 -1.1187844 0.47831249
-3.1585493 -1.1187844 0.52812499
-3.1585493 -1.1187844 0.57793748
-3.1585493 -1.1187844 0.62774998
-3.1585493 -1.1187844 0.67756248
-3.1585493 -1.1187844 0.72737497
-3.1585493 -1.1187844 0.77718747
-3.1585493 -1.1187844 0.82699996
-3.1585493 -1.1187844 0.87681246
-3.1585493 -1.1187844 0.92662495
-3.1585493 -1.1187844 0.97643745
-3.1585493 -1.1187844 1.02625
-3.1585493 -1.1685081 0.97643745
-3.1585493 -1.1685081 1.02625
-3.1585493 -1.2182317 0.97643745
-3.1585493 -1.2182317 1.02625
-3.1585493 -1.2679558 0.97643745
-3.1585493 -1.2679558 1.02625
-3.1585493 -1.3176794 0.97643745
-3.1585493 -1.3176794 1.02625
-3.1585493 -1.367403 0.97643745
-3.1585493 -1.367403 1.02625
-3.1585493 -1.4171271 0.97643745
-3.1585493 -1.4171271 1.02625
-3.1585493 -1.4668508 0.97643745
-3.1585493 -1.4668508 1.02625
-3.1585493 -1.5165744 0.97643745
-3.1585493 -1.5165744 1.02625
-3.1585493 -1.566298 0.97643745
-3.1585493 -1.566298 1.02625
-3.1585493 -1.6160221 0.97643745
-3.1585493 -1.6160221 1.02625
-3.1585493 -1.6657457 0.97643745
-3.1585493 -1.6657457 1.02625
-3.1585493 -1.7154694 0.97643745
-3.1585493 -1.7154694 1.02625
-3.1585493 -1.765193 0.97643745
-3.1585493 -1.765193 1.02625
-3.1585493 -1.8149171 0.97643745
-3.1585493 -1.8149171 1.02625
-3.1585493 -1.8646407 0.029999999
-3.1585493 -1.8646407 0.079812497
-3.1585493 -1.8646407 0.12962499
-3.1585493 -1.8646407 0.1794375
-3.1585493 -1.8646407 0.22925
-3.1585493 -1.8646407 0.27906248
-3.1585493 -1.8646407 0.32887501
-3.1585493 -1.8646407 0.3786875
-3.1585493 -1.8646407 0.4285
-3.1585493 -1.8646407 0.47831249
-3.1585493 -1.8646407 0.52812499
-3.1585493 -1.8646407 0.57793748
-3.1585493 -1.8646407 0.62774998
-3.1585493 -1.8646407 0.67756248
-3.1585493 -1.8646407 0.72737497
-3.1585493 -1.8646407 0.77718747
-3.1585493 -1.8646407 0.82699996
-3.1585493 -1.8646407 0.87681246
-3.1585493 -1.8646407 0.92662495
-3.1585493 -1.8646407 0.97643745
-3.1585493 -1.8646407 1.02625
-3.1088083 -1.1187844 0.97643745
-3.1088083 -1.1187844 1.02625
-3.1088083 -1.1685081 0.97643745
-3.1088083 -1.1685081 1.02625
-3.1088083 -1.2182317 0.97643745
-3.1088083 -1.2182317 1.02625
-3.1088083 -1.2679558 0.97643745
-3.1088083 -1.2679558 1.02625
-3.1088083 -1.3176794 0.97643745
-3.1088083 -1.3176794 1.02625
-3.1088083 -1.367403 0.97643745
-3.1088083 -1.367403 1.02625
-3.1088083 -1.4171271 0.97643745
-3.1088083 -1.4171271 1.02625
-3.1088083 -1.4668508 0.97643745
-3.1088083 -1.4668508 1.02625
-3.1088083 -1.5165744 0.97643745
-3.1088083 -1.5165744 1.02625
-3.1088083 -1.566298 0.97643745
-3.1088083 -1.566298 1.02625
-3.1088083 -1.6160221 0.97643745
-3.1088083 -1.6160221 1.02625
-3.1088083 -1.6657457 0.97643745
-3.1088083 -1.6657457 1.02625
-3.1088083 -1.7154694 0.97643745
-3.1088083 -1.7154694 1.02625
-3.1088083 -1.765193 0.97643745
-3.1088083 -1.765193 1.02625
-3.1088083 -1.8149171 0.97643745
-3.1088083 -1.8149171 1.02625
-3.1088083 -1.8646407 0.97643745
-3.1088083 -1.8646407 1.02625
-3.0590672 -1.1187844 0.97643745
-3.0590672 -1.1187844 1.02625
-3.0590672 -1.1685081 0.97643745
-3.0590672 -1.1685081 1.02625
-3.0590672 -1.2182317 0.97643745
-3.0590672 -1.2182317 1.02625
-3.0590672 -1.2679558 0.97643745
-3.0590672 -1.2679558 1.02625
-3.0590672 -1.3176794 0.97643745
-3.0590672 -1.3176794 1.02625
-3.0590672 -1.367403 0.97643745
-3.0590672 -1.367403 1.02625
-3.0590672 -1.4171271 0.97643745
-3.0590672 -1.4171271 1.02625
-3.0590672 -1.4668508 0.97643745
-3.0590672 -1.4668508 1.02625
-3.0590672 -1.5165744 0.97643745
-3.0590672 -1.5165744 1.02625
-3.0590672 -1.566298 0.97643745
-3.0590672 -1.566298 1.02625
-3.0590672 -1.6160221 0.97643745
-3.0590672 -1.6160221 1.02625
-3.0590672 -1.6657457 0.97643745
-3.0590672 -1.6657457 1.02625
-3.0590672 -1.7154694 0.97643745
-3.0590672 -1.7154694 1.02625
-3.0590672 -1.765193 0.97643745
-3.0590672 -1.765193 1.02625
-3.0590672 -1.8149171 0.97643745
-3.0590672 -1.8149171 1.02625
-3.0590672 -1.8646407 0.97643745
-3.0590672 -1.8646407 1.02625
-3.0093265 -1.1187844 0.97643745
-3.0093265 -1.1187844 1.02625
-3.0093265 -1.1685081 0.97643745
-3.0093265 -1.1685081 1.02625
-3.0093265 -1.2182317 0.97643745
-3.0093265 -1.2182317 1.02625
-3.0093265 -1.2679558 0.97643745
-3.0093265 -1.2679558 1.02625
-3.0093265 -1.3176794 0.97643745
-3.0093265 -1.3176794 1.02625
-3.0093265 -1.367403 0.97643745
-3.0093265 -1.367403 1.02625
-3.0093265 -1.4171271 0.97643745
-3.0093265 -1.4171271 1.02625
-3.0093265 -1.4668508 0.97643745
-3.0093265 -1.4668508 1.02625
-3.0093265 -1.5165744 0.97643745
-3.0093265 -1.5165744 1.02625
-3.0093265 -1.566298 0.97643745
-3.0093265 -1.566298 1.02625
-3.0093265 -1.6160221 0.97643745
-3.0093265 -1.6160221 1.02625
-3.0093265 -1.6657457 0.97643745
-3.0093265 -1.6657457 1.02625
-3.0093265 -1.7154694 0.97643745
-3.0093265 -1.7154694 1.02625
-3.0093265 -1.765193 0.97643745
-3.0093265 -1.765193 1.02625
-3.0093265 -1.8149171 0.97643745
-3.0093265 -1.8149171 1.02625
-3.0093265 -1.8646407 0.97643745
-3.0093265 -1.8646407 1.02625
-2.9595854 -1.1187844 0.97643745
-2.9595854 -1.1187844 1.02625
-2.9595854 -1.1685081 0.97643745
-2.9595854 -1.1685081 1.02625
-2.9595854 -1.2182317 0.97643745
-2.9595854 -1.2182317 1.02625
-2.9595854 -1.2679558 0.97643745
-2.9595854 -1.2679558 1.02625
-2.9595854 -1.3176794 0.97643745
-2.9595854 -1.3176794 1.02625
-2.9595854 -1.367403 0.97643745
-2.9595854 -1.367403 1.02625
-2.9595854 -1.4171271 0.97643745
-2.9595854 -1.4171271 1.02625
-2.9595854 -1.4668508 0.97643745
-2.9595854 -1.4668508 1.02625
-2.9595854 -1.5165744 0.97643745
-2.9595854 -1.5165744 1.02625
-2.9595854 -1.566298 0.97643745
-2.9595854 -1.566298 1.02625
-2.9595854 -1.6160221 0.97643745
-2.9595854 -1.6160221 1.02625
-2.9595854 -1.6657457 0.97643745
-2.9595854 -1.6657457 1.02625
-2.9595854 -1.7154694 0.97643745
-2.9595854 -1.7154694 1.02625
-2.9595854 -1.765193 0.97643745
-2.9595854 -1.765193 1.02625
-2.9595854 -1.8149171 0.97643745
-2.9595854 -1.8149171 1.02625
-2.9595854 -1.8646407 0.97643745
-2.9595854 -1.8646407 1.02625
-2.9098446 -1.1187844 0.97643745
-2.9098446 -1.1187844 1.02625
-2.9098446 -1.1685081 0.97643745
-2.9098446 -1.1685081 1.02625
-2.9098446 -1.2182317 0.97643745
-2.9098446 -1.2182317 1.02625
-2.9098446 -1.2679558 0.97643745
-2.9098446 -1.2679558 1.02625
-2.9098446 -1.3176794 0.97643745
-2.9098446 -1.3176794 1.02625
-2.9098446 -1.367403 0.97643745
-2.9098446 -1.367403 1.02625
-2.9098446 -1.4171271 0.97643745
-2.9098446 -1.4171271 1.02625
-2.9098446 -1.4668508 0.97643745
-2.9098446 -1.4668508 1.02625
-2.9098446 -1.5165744 0.97643745
-2.9098446 -1.5165744 1.02625
-2.9098446 -1.566298 0.97643745
-2.9098446 -1.566298 1.02625
-2.9098446 -1.6160221 0.97643745
-2.9098446 -1.6160221 1.02625
-2.9098446 -1.6657457 0.97643745
-2.9098446 -1.6657457 1.02625
-2.9098446 -1.7154694 0.97643745
-2.9098446 -1.7154694 1.02625
-2.9098446 -1.765193 0.97643745
-2.9098446 -1.765193 1.02625
-2.9098446 -1.8149171 0.97643745
-2.9098446 -1.8149171 1.02625
-2.9098446 -1.8646407 0.97643745
-2.9098446 -1.8646407 1.02625
-2.8601036 -1.1187844 0.97643745
-2.8601036 -1.1187844 1.02625
-2.8601036 -1.1685081 0.97643745
-2.8601036 -1.1685081 1.02625
-2.8601036 -1.2182317 0.97643745
-2.8601036 -1.2182317 1.02625
-2.8601036 -1.2679558 0.97643745
-2.8601036 -1.2679558 1.02625
-2.8601036 -1.3176794 0.97643745
-2.8601036 -1.3176794 1.02625
-2.8601036 -1.367403 0.97643745
-2.8601036 -1.367403 1.02625
-2.8601036 -1.4171271 0.97643745
-2.8601036 -1.4171271 1.02625
-2.8601036 -1.4668508 0.97643745
-2.8601036 -1.4668508 1.02625
-2.8601036 -1.5165744 0.97643745
-2.8601036 -1.5165744 1.02625
-2.8601036 -1.566298 0.97643745
-2.8601036 -1.566298 1.02625
-2.8601036 -1.6160221 0.97643745
-2.8601036 -1.6160221 1.02625
-2.8601036 -1.6657457 0.97643745
-2.8601036 -1.6657457 1.02625
-2.8601036 -1.7154694 0.97643745
-2.8601036 -1.7154694 1.02625
-2.8601036 -1.765193 0.97643745
-2.8601036 -1.765193 1.02625
-2.8601036 -1.8149171 0.97643745
-2.8601036 -1.8149171 1.02625
-2.8601036 -1.8646407 0.97643745
-2.8601036 -1.8646407 1.02625
-2.8103626 -1.1187844 0.97643745
-2.8103626 -1.1187844 1.02625
-2.8103626 -1.1685081 0.97643745
-2.8103626 -1.1685081 1.02625
-2.8103626 -1.2182317 0.97643745
-2.8103626 -1.2182317 1.02625
-2.8103626 -1.2679558 0.97643745
-2.8103626 -1.2679558 1.02625
-2.8103626 -1.3176794 0.97643745
-2.8103626 -1.3176794 1.02625
-2.8103626 -1.367403 0.97643745
-2.8103626 -1.367403 1.02625
-2.8103626 -1.4171271 0.97643745
-2.8103626 -1.4171271 1.02625
-2.8103626 -1.4668508 0.97643745
-2.8103626 -1.4668508 1.02625
-2.8103626 -1.5165744 0.97643745
-2.8103626 -1.5165744 1.02625
-2.8103626 -1.566298 0.97643745
-2.8103626 -1.566298 1.02625
-2.8103626 -1.6160221 0.97643745
-2.8103626 -1.6160221 1.02625
-2.8103626 -1.6657457 0.97643745
-2.8103626 -1.6657457 1.02625
-2.8103626 -1.7154694 0.97643745
-2.8103626 -1.7154694 1.02625
-2.8103626 -1.765193 0.97643745
-2.8103626 -1.765193 1.02625
-2.8103626 -1.8149171 0.97643745
-2.8103626 -1.8149171 1.02625
-2.8103626 -1.8646407 0.97643745
-2.8103626 -1.8646407 1.02625
-2.7606218 -1.1187844 0.97643745
-2.7606218 -1.1187844 1.02625
-2.7606218 -1.1685081 0.97643745
-2.7606218 -1.1685081 1.02625
-2.7606218 -1.2182317 0.97643745
-2.7606218 -1.2182317 1.02625
-2.7606218 -1.2679558 0.97643745
-2.7606218 -1.2679558 1.02625
-2.7606218 -1.3176794 0.97643745
-2.7606218 -1.3176794 1.02625
-2.7606218 -1.367403 0.97643745
-2.7606218 -1.367403 1.02625
-2.7606218 -1.4171271 0.97643745
-2.7606218 -1.4171271 1.02625
-2.7606218 -1.4668508 0.97643745
-2.7606218 -1.4668508 1.02625
-2.7606218 -1.5165744 0.97643745
-2.7606218 -1.5165744 1.02625
-2.7606218 -1.566298 0.97643745
-2.7606218 -1.566298 1.02625
-2.7606218 -1.6160221 0.97643745
-2.7606218 -1.6160221 1.02625
-2.7606218 -1.6657457 0.97643745
-2.7606218 -1.6657457 1.02625
-2.7606218 -1.7154694 0.97643745
-2.7606218 -1.7154694 1.02625
-2.7606218 -1.765193 0.97643745
-2.7606218 -1.765193 1.02625
-2.7606218 -1.8149171 0.97643745
-2.7606218 -1.8149171 1.02625
-2.7606218 -1.8646407 0.97643745
-2.7606218 -1.8646407 1.02625
-2.7108808 -1.1187844 0.97643745
-2.7108808 -1.1187844 1.02625
-2.7108808 -1.1685081 0.97643745
-2.7108808 -1.1685081 1.02625
-2.7108808 -1.2182317 0.97643745
-2.7108808 -1.2182317 1.02625
-2.7108808 -1.2679558 0.97643745
-2.7108808 -1.2679558 1.02625
-2.7108808 -1.3176794 0.97643745
-2.7108808 -1.3176794 1.02625
-2.7108808 -1.367403 0.97643745
-2.7108808 -1.367403 1.02625
-2.7108808 -1.4171271 0.97643745
-2.7108808 -1.4171271 1.02625
-2.7108808 -1.4668508 0.97643745
-2.7108808 -1.4668508 1.02625
-2.7108808 -1.5165744 0.97643745
-2.7108808 -1.5165744 1.02625
-2.7108808 -1.566298 0.97643745
-2.7108808 -1.566298 1.02625
-2.7108808 -1.6160221 0.97643745
-2.7108808 -1.6160221 1.02625
-2.7108808 -1.6657457 0.97643745
-2.7108808 -1.6657457 1.02625
-2.7108808 -1.7154694 0.97643745
-2.7108808 -1.7154694 1.02625
-2.7108808 -1.765193 0.97643745
-2.7108808 -1.765193 1.02625
-2.7108808 -1.8149171 0.97643745
-2.7108808 -1.8149171 1.02625
-2.7108808 -1.8646407 0.97643745
-2.7108808 -1.8646407 1.02625
-2.6611397 -1.1187844 0.97643745
-2.6611397 -1.1187844 1.02625
-2.6611397 -1.1685081 0.97643745
-2.6611397 -1.1685081 1.02625
-2.6611397 -1.2182317 0.97643745
-2.6611397 -1.2182317 1.02625
-2.6611397 -1.2679558 0.97643745
-2.6611397 -1.2679558 1.02625
-2.6611397 -1.3176794 0.97643745
-2.6611397 -1.3176794 1.02625
-2.6611397 -1.367403 0.97643745
-2.6611397 -1.367403 1.02625
-2.6611397 -1.4171271 0.97643745
-2.6611397 -1.4171271 1.02625
-2.6611397 -1.4668508 0.97643745
-2.6611397 -1.4668508 1.02625
-2.6611397 -1.5165744 0.97643745
-2.6611397 -1.5165744 1.02625
-2.6611397 -1.566298 0.97643745
-2.6611397 -1.566298 1.02625
-2.6611397 -1.6160221 0.97643745
-2.6611397 -1.6160221 1.02625
-2.6611397 -1.6657457 0.97643745
-2.6611397 -1.6657457 1.02625
-2.6611397 -1.7154694 0.97643745
-2.6611397 -1.7154694 1.02625
-2.6611397 -1.765193 0.97643745
-2.6611397 -1.765193 1.02625
-2.6611397 -1.8149171 0.97643745
-2.6611397 -1.8149171 1.02625
-2.6611397 -1.8646407 0.97643745
-2.6611397 -1.8646407 1.02625
-2.6113989 -1.1187844 0.97643745
-2.6113989 -1.1187844 1.02625
-2.6113989 -1.1685081 0.97643745
-2.6113989 -1.1685081 1.02625
-2.6113989 -1.2182317 0.97643745
-2.6113989 -1.2182317 1.02625
-2.6113989 -1.2679558 0.97643745
-2.6113989 -1.2679558 1.02625
-2.6113989 -1.3176794 0.97643745
-2.6113989 -1.3176794 1.02625
-2.6113989 -1.367403 0.97643745
-2.6113989 -1.367403 1.02625
-2.6113989 -1.4171271 0.97643745
-2.6113989 -1.4171271 1.02625
-2.6113989 -1.4668508 0.97643745
-2.6113989 -1.4668508 1.02625
-2.6113989 -1.5165744 0.97643745
-2.6113989 -1.5165744 1.02625
-2.6113989 -1.566298 0.97643745
-2.6113989 -1.566298 1.02625
-2.6113989 -1.6160221 0.97643745
-2.6113989 -1.6160221 1.02625
-2.6113989 -1.6657457 0.97643745
-2.6113989 -1.6657457 1.02625
-2.6113989 -1.7154694 0.97643745
-2.6113989 -1.7154694 1.02625
-2.6113989 -1.765193 0.97643745
-2.6113989 -1.765193 1.02625
-2.6113989 -1.8149171 0.97643745
-2.6113989 -1.8149171 1.02625
-2.6113989 -1.8646407 0.97643745
-2.6113989 -1.8646407 1.02625
-2.5616579 -1.1187844 0.97643745
-2.5616579 -1.1187844 1.02625
-2.5616579 -1.1685081 0.97643745
-2.5616579 -1.1685081 1.02625
-2.5616579 -1.2182317 0.97643745
-2.5616579 -1.2182317 1.02625
-2.5616579 -1.2679558 0.97643745
-2.5616579 -1.2679558 1.02625
-2.5616579 -1.3176794 0.97643745
-2.5616579 -1.3176794 1.02625
-2.5616579 -1.367403 0.97643745
-2.5616579 -1.367403 1.02625
-2.5616579 -1.4171271 0.97643745
-2.5616579 -1.4171271 1.02625
-2.5616579 -1.4668508 0.97643745
-2.5616579 -1.4668508 1.02625
-2.5616579 -1.5165744 0.97643745
-2.5616579 -1.5165744 1.02625
-2.5616579 -1.566298 0.97643745
-2.5616579 -1.566298 1.02625
-2.5616579 -1.6160221 0.97643745
-2.5616579 -1.6160221 1.02625
-2.5616579 -1.6657457 0.97643745
-2.5616579 -1.6657457 1.02625
-2.5616579 -1.7154694 0.97643745
-2.5616579 -1.7154694 1.02625
-2.5616579 -1.765193 0.97643745
-2.5616579 -1.765193 1.02625
-2.5616579 -1.8149171 0.97643745
-2.5616579 -1.8149171 1.02625
-2.5616579 -1.8646407 0.97643745
-2.5616579 -1.8646407 1.02625
-2.5119171 -1.1187844 0.97643745
-2.5119171 -1.1187844 1.02625
-2.5119171 -1.1685081 0.97643745
-2.5119171 -1.1685081 1.02625
-2.5119171 -1.2182317 0.97643745
-2.5119171 -1.2182317 1.02625
-2.5119171 -1.2679558 0.97643745
-2.5119171 -1.2679558 1.02625
-2.5119171 -1.3176794 0.97643745
-2.5119171 -1.3176794 1.02625
-2.5119171 -1.367403 0.97643745
-2.5119171 -1.367403 1.02625
-2.5119171 -1.4171271 0.97643745
-2.5119171 -1.4171271 1.02625
-2.5119171 -1.4668508 0.97643745
-2.5119171 -1.4668508 1.02625
-2.5119171 -1.5165744 0.97643745
-2.5119171 -1.5165744 1.02625
-2.5119171 -1.566298 0.97643745
-2.5119171 -1.566298 1.02625
-2.5119171 -1.6160221 0.97643745
-2.5119171 -1.6160221 1.02625
-2.5119171 -1.6657457 0.97643745
-2.5119171 -1.6657457 1.02625
-2.5119171 -1.7154694 0.97643745
-2.5119171 -1.7154694 1.02625
-2.5119171 -1.765193 0.97643745
-2.5119171 -1.765193 1.02625
-2.5119171 -1.8149171 0.97643745
-2.5119171 -1.8149171 1.02625
-2.5119171 -1.8646407 0.97643745
-2.5119171 -1.8646407 1.02625
-2.4621761 -1.1187844 0.97643745
-2.4621761 -1.1187844 1.02625
-2.4621761 -1.1685081 0.97643745
-2.4621761 -1.1685081 1.02625
-2.4621761 -1.2182317 0.97643745
-2.4621761 -1.2182317 1.02625
-2.4621761 -1.2679558 0.97643745
-2.4621761 -1.2679558 1.02625
-2.4621761 -1.3176794 0.97643745
-2.4621761 -1.3176794 1.02625
-2.4621761 -1.367403 0.97643745
-2.4621761 -1.367403 1.02625
-2.4621761 -1.4171271 0.97643745
-2.4621761 -1.4171271 1.02625
-2.4621761 -1.4668508 0.97643745
-2.4621761 -1.4668508 1.02625
-2.4621761 -1.5165744 0.97643745
-2.4621761 -1.5165744 1.02625
-2.4621761 -1.566298 0.97643745
-2.4621761 -1.566298 1.02625
-2.4621761 -1.6160221 0.97643745
-2.4621761 -1.6160221 1.02625
-2.4621761 -1.6657457 0.97643745
-2.4621761 -1.6657457 1.02625
-2.4621761 -1.7154694 0.97643745
-2.4621761 -1.7154694 1.02625
-2.4621761 -1.765193 0.97643745
-2.4621761 -1.765193 1.02625
-2.4621761 -1.8149171 0.97643745
-2.4621761 -1.8149171 1.02625
-2.4621761 -1.8646407 0.97643745
-2.4621761 -1.8646407 1.02625
-2.4124353 -1.1187844 0.97643745
-2.4124353 -1.1187844 1.02625
-2.4124353 -1.1685081 0.97643745
-2.4124353 -1.1685081 1.02625
-2.4124353 -1.2182317 0.97643745
-2.4124353 -1.2182317 1.02625
-2.4124353 -1.2679558 0.97643745
-2.4124353 -1.2679558 1.02625
-2.4124353 -1.3176794 0.97643745
-2.4124353 -1.3176794 1.02625
-2.4124353 -1.367403 0.97643745
-2.4124353 -1.367403 1.02625
-2.4124353 -1.4171271 0.97643745
-2.4124353 -1.4171271 1.02625
-2.4124353 -1.4668508 0.97643745
-2.4124353 -1.4668508 1.02625
-2.4124353 -1.5165744 0.97643745
-2.4124353 -1.5165744 1.02625
-2.4124353 -1.566298 0.97643745
-2.4124353 -1.566298 1.02625
-2.4124353 -1.6160221 0.97643745
-2.4124353 -1.6160221 1.02625
-2.4124353 -1.6657457 0.97643745
-2.4124353 -1.6657457 1.02625
-2.4124353 -1.7154694 0.97643745
-2.4124353 -1.7154694 1.02625
-2.4124353 -1.765193 0.97643745
-2.4124353 -1.765193 1.02625
-2.4124353 -1.8149171 0.97643745
-2.4124353 -1.8149171 1.02625
-2.4124353 -1.8646407 0.97643745
-2.4124353 -1.8646407 1.02625
-2.3626943 -1.1187844 0.97643745
-2.3626943 -1.1187844 1.02625
-2.3626943 -1.1685081 0.97643745
-2.3626943 -1.1685081 1.02625
-2.3626943 -1.2182317 0.97643745
-2.3626943 -1.2182317 1.02625
-2.3626943 -1.2679558 0.97643745
-2.3626943 -1.2679558 1.02625
-2.3626943 -1.3176794 0.97643745
-2.3626943 -1.3176794 1.02625
-2.3626943 -1.367403 0.97643745
-2.3626943 -1.367403 1.02625
-2.3626943 -1.4171271 0.97643745
-2.3626943 -1.4171271 1.02625
-2.3626943 -1.4668508 0.97643745
-2.3626943 -1.4668508 1.02625
-2.3626943 -1.5165744 0.97643745
-2.3626943 -1.5165744 1.02625
-2.3626943 -1.566298 0.97643745
-2.3626943 -1.566298 1.02625
-2.3626943 -1.6160221 0.97643745
-2.3626943 -1.6160221 1.02625
-2.3626943 -1.6657457 0.97643745
-2.3626943 -1.6657457 1.02625
-2.3626943 -1.7154694 0.97643745
-2.3626943 -1.7154694 1.02625
-2.3626943 -1.765193 0.97643745
-2.3626943 -1.765193 1.02625
-2.3626943 -1.8149171 0.97643745
-2.3626943 -1.8149171 1.02625
-2.3626943 -1.8646407 0.97643745
-2.3626943 -1.8646407 1.02625
-2.3129532 -1.1187844 0.97643745
-2.3129532 -1.1187844 1.02625
-2.3129532 -1.1685081 0.97643745
-2.3129532 -1.1685081 1.02625
-2.3129532 -1.2182317 0.97643745
-2.3129532 -1.2182317 1.02625
-2.3129532 -1.2679558 0.97643745
-2.3129532 -1.2679558 1.02625
-2.3129532 -1.3176794 0.97643745
-2.3129532 -1.3176794 1.02625
-2.3129532 -1.367403 0.97643745
-2.3129532 -1.367403 1.02625
-2.3129532 -1.4171271 0.97643745
-2.3129532 -1.4171271 1.02625
-2.3129532 -1.4668508 0.97643745
-2.3129532 -1.4668508 1.02625
-2.3129532 -1.5165744 0.97643745
-2.3129532 -1.5165744 1.02625
-2.3129532 -1.566298 0.97643745
-2.3129532 -1.566298 1.02625
-2.3129532 -1.6160221 0.97643745
-2.3129532 -1.6160221 1.02625
-2.3129532 -1.6657457 0.97643745
-2.3129532 -1.6657457 1.02625
-2.3129532 -1.7154694 0.97643745
-2.3129532 -1.7154694 1.02625
-2.3129532 -1.765193 0.97643745
-2.3129532 -1.765193 1.02625
-2.3129532 -1.8149171 0.97643745
-2.3129532 -1.8149171 1.02625
-2.3129532 -1.8646407 0.97643745
-2.3129532 -1.8646407 1.02625
-2.2632124 -1.1187844 0.97643745
-2.2632124 -1.1187844 1.02625
-2.2632124 -1.1685081 0.97643745
-2.2632124 -1.1685081 1.02625
-2.2632124 -1.2182317 0.97643745
-2.2632124 -1.2182317 1.02625
-2.2632124 -1.2679558 0.97643745
-2.2632124 -1.2679558 1.02625
-2.2632124 -1.3176794 0.97643745
-2.2632124 -1.3176794 1.02625
-2.2632124 -1.367403 0.97643745
-2.2632124 -1.367403 1.02625
-2.2632124 -1.4171271 0.97643745
-2.2632124 -1.4171271 1.02625
-2.2632124 -1.4668508 0.97643745
-2.2632124 -1.4668508 1.02625
-2.2632124 -1.5165744 0.97643745
-2.2632124 -1.5165744 1.02625
-2.2632124 -1.566298 0.97643745
-2.2632124 -1.566298 1.02625
-2.2632124 -1.6160221 0.97643745
-2.2632124 -1.6160221 1.02625
-2.2632124 -1.6657457 0.97643745
-2.2632124 -1.6657457 1.02625
-2.2632124 -1.7154694 0.97643745
-2.2632124 -1.7154694 1.02625
-2.2632124 -1.765193 0.97643745
-2.2632124 -1.765193 1.02625
-2.2632124 -1.8149171 0.97643745
-2.2632124 -1.8149171 1.02625
-2.2632124 -1.8646407 0.97643745
-2.2632124 -1.8646407 1.02625
-2.2134714 -1.1187844 0.97643745
-2.2134714 -1.1187844 1.02625
-2.2134714 -1.1685081 0.97643745
-2.2134714 -1.1685081 1.02625
-2.2134714 -1.2182317 0.97643745
-2.2134714 -1.2182317 1.02625
-2.2134714 -1.2679558 0.97643745
-2.2134714 -1.2679558 1.02625
-2.2134714 -1.3176794 0.97643745
-2.2134714 -1.3176794 1.02625
-2.2134714 -1.367403 0.97643745
-2.2134714 -1.367403 1.02625
-2.2134714 -1.4171271 0.97643745
-2.2134714 -1.4171271 1.02625
-2.2134714 -1.4668508 0.97643745
-2.2134714 -1.4668508 1.02625
-2.2134714 -1.5165744 0.97643745
-2.2134714 -1.5165744 1.02625
-2.2134714 -1.566298 0.97643745
-2.2134714 -1.566298 1.02625
-2.2134714 -1.6160221 0.97643745
-2.2134714 -1.6160221 1.02625
-2.2134714 -1.6657457 0.97643745
-2.2134714 -1.6657457 1.02625
-2.2134714 -1.7154694 0.97643745
-2.2134714 -1.7154694 1.02625
-2.2134714 -1.765193 0.97643745
-2.2134714 -1.765193 1.02625
-2.2134714 -1.8149171 0.97643745
-2.2134714 -1.8149171 1.02625
-2.2134714 -1.8646407 0.97643745
-2.2134714 -1.8646407 1.02625
-2.1637306 -1.1187844 0.97643745
-2.1637306 -1.1187844 1.02625
-2.1637306 -1.1685081 0.97643745
-2.1637306 -1.1685081 1.02625
-2.1637306 -1.2182317 0.97643745
-2.1637306 -1.2182317 1.02625
-2.1637306 -1.2679558 0.97643745
-2.1637306 -1.2679558 1.02625
-2.1637306 -1.3176794 0.97643745
-2.1637306 -1.3176794 1.02625
-2.1637306 -1.367403 0.97643745
-2.1637306 -1.367403 1.02625
-2.1637306 -1.4171271 0.97643745
-2.1637306 -1.4171271 1.02625
-2.1637306 -1.4668508 0.97643745
-2.1637306 -1.4668508 1.02625
-2.1637306 -1.5165744 0.97643745
-2.1637306 -1.5165744 1.02625
-2.1637306 -1.566298 0.97643745
-2.1637306 -1.566298 1.02625
-2.1637306 -1.6160221 0.97643745
-2.1637306 -1.6160221 1.02625
-2.1637306 -1.6657457 0.97643745
-2.1637306 -1.6657457 1.02625
-2.1637306 -1.7154694 0.97643745
-2.1637306 -1.7154694 1.02625
-2.1637306 -1.765193 0.97643745
-2.1637306 -1.765193 1.02625
-2.1637306 -1.8149171 0.97643745
-2.1637306 -1.8149171 1.02625
-2.1637306 -1.8646407 0.97643745
-2.1637306 -1.8646407 1.02625
-2.1139896 -1.1187844 0.97643745
-2.1139896 -1.1187844 1.02625
-2.1139896 -1.1685081 0.97643745
-2.1139896 -1.1685081 1.02625
-2.1139896 -1.2182317 0.97643745
-2.1139896 -1.2182317 1.02625
-2.1139896 -1.2679558 0.97643745
-2.1139896 -1.2679558 1.02625
-2.1139896 -1.3176794 0.97643745
-2.1139896 -1.3176794 1.02625
-2.1139896 -1.367403 0.97643745
-2.1139896 -1.367403 1.02625
-2.1139896 -1.4171271 0.97643745
-2.1139896 -1.4171271 1.02625
-2.1139896 -1.4668508 0.97643745
-2.1139896 -1.4668508 1.02625
-2.1139896 -1.5165744 0.97643745
-2.1139896 -1.5165744 1.02625
-2.1139896 -1.566298 0.97643745
-2.1139896 -1.566298 1.02625
-2.1139896 -1.6160221 0.97643745
-2.1139896 -1.6160221 1.02625
-2.1139896 -1.6657457 0.97643745
-2.1139896 -1.6657457 1.02625
-2.1139896 -1.7154694 0.97643745
-2.1139896 -1.7154694 1.02625
-2.1139896 -1.765193 0.97643745
-2.1139896 -1.765193 1.02625
-2.1139896 -1.8149171 0.97643745
-2.1139896 -1.8149171 1.02625
-2.1139896 -1.8646407 0.97643745
-2.1139896 -1.8646407 1.02625
-2.0642486 -1.1187844 0.97643745
-2.0642486 -1.1187844 1.02625
-2.0642486 -1.1685081 0.97643745
-2.0642486 -1.1685081 1.02625
-2.0642486 -1.2182317 0.97643745
-2.0642486 -1.2182317 1.02625
-2.0642486 -1.2679558 0.97643745
-2.0642486 -1.2679558 1.02625
-2.0642486 -1.3176794 0.97643745
-2.0642486 -1.3176794 1.02625
-2.0642486 -1.367403 0.97643745
-2.0642486 -1.367403 1.02625
-2.0642486 -1.4171271 0.97643745
-2.0642486 -1.4171271 1.02625
-2.0642486 -1.4668508 0.97643745
-2.0642486 -1.4668508 1.02625
-2.0642486 -1.5165744 0.97643745
-2.0642486 -1.5165744 1.02625
-2.0642486 -1.566298 0.97643745
-2.0642486 -1.566298 1.02625
-2.0642486 -1.6160221 0.97643745
-2.0642486 -1.6160221 1.02625
-2.0642486 -1.6657457 0.97643745
-2.0642486 -1.6657457 1.02625
-2.0642486 -1.7154694 0.97643745
-2.0642486 -1.7154694 1.02625
-2.0642486 -1.765193 0.97643745
-2.0642486 -1.765193 1.02625
-2.0642486 -1.8149171 0.97643745
-2.0642486 -1.8149171 1.02625
-2.0642486 -1.8646407 0.97643745
-2.0642486 -1.8646407 1.02625
-2.0145078 -1.1187844 0.97643745
-2.0145078 -1.1187844 1.02625
-2.0145078 -1.1685081 0.97643745
-2.0145078 -1.1685081 1.02625
-2.0145078 -1.2182317 0.97643745
-2.0145078 -1.2182317 1.02625
-2.0145078 -1.2679558 0.97643745
-2.0145078 -1.2679558 1.02625
-2.0145078 -1.3176794 0.97643745
-2.0145078 -1.3176794 1.02625
-2.0145078 -1.367403 0.97643745
-2.0145078 -1.367403 1.02625
-2.0145078 -1.4171271 0.97643745
-2.0145078 -1.4171271 1.02625
-2.0145078 -1.4668508 0.97643745
-2.0145078 -1.4668508 1.02625
-2.0145078 -1.5165744 0.97643745
-2.0145078 -1.5165744 1.02625
-2.0145078 -1.566298 0.97643745
-2.0145078 -1.566298 1.02625
-2.0145078 -1.6160221 0.97643745
-2.0145078 -1.6160221 1.02625
-2.0145078 -1.6657457 0.97643745
-2.0145078 -1.6657457 1.02625
-2.0145078 -1.7154694 0.97643745
-2.0145078 -1.7154694 1.02625
-2.0145078 -1.765193 0.97643745
-2.0145078 -1.765193 1.02625
-2.0145078 -1.8149171 0.97643745
-2.0145078 -1.8149171 1.02625
-2.0145078 -1.8646407 0.97643745
-2.0145078 -1.8646407 1.02625
-1.9647667 -1.1187844 0.97643745
-1.9647667 -1.1187844 1.02625
-1.9647667 -1.1685081 0.97643745
-1.9647667 -1.1685081 1.02625
-1.9647667 -1.2182317 0.97643745
-1.9647667 -1.2182317 1.02625
-1.9647667 -1.2679558 0.97643745
-1.9647667 -1.2679558 1.02625
-1.9647667 -1.3176794 0.97643745
-1.9647667 -1.3176794 1.02625
-1.9647667 -1.367403 0.97643745
-1.9647667 -1.367403 1.02625
-1.9647667 -1.4171271 0.97643745
-1.9647667 -1.4171271 1.02625
-1.9647667 -1.4668508 0.97643745
-1.9647667 -1.4668508 1.02625
-1.9647667 -1.5165744 0.97643745
-1.9647667 -1.5165744 1.02625
-1.9647667 -1.566298 0.97643745
-1.9647667 -1.566298 1.02625
-1.9647667 -1.6160221 0.97643745
-1.9647667 -1.6160221 1.02625
-1.9647667 -1.6657457 0.97643745
-1.9647667 -1.6657457 1.02625
-1.9647667 -1.7154694 0.97643745
-1.9647667 -1.7154694 1.02625
-1.9647667 -1.765193 0.97643745
-1.9647667 -1.765193 1.02625
-1.9647667 -1.8149171 0.97643745
-1.9647667 -1.8149171 1.02625
-1.9647667 -1.8646407 0.97643745
-1.9647667 -1.8646407 1.02625
-1.9150259 -1.1187844 0.97643745
-1.9150259 -1.1187844 1.02625
-1.9150259 -1.1685081 0.97643745
-1.9150259 -1.1685081 1.02625
-1.9150259 -1.2182317 0.97643745
-1.9150259 -1.2182317 1.02625
-1.9150259 -1.2679558 0.97643745
-1.9150259 -1.2679558 1.02625
-1.9150259 -1.3176794 0.97643745
-1.9150259 -1.3176794 1.02625
-1.9150259 -1.367403 0.97643745
-1.9150259 -1.367403 1.02625
-1.9150259 -1.4171271 0.97643745
-1.9150259 -1.4171271 1.02625
-1.9150259 -1.4668508 0.97643745
-1.9150259 -1.4668508 1.02625
-1.9150259 -1.5165744 0.97643745
-1.9150259 -1.5165744 1.02625
-1.9150259 -1.566298 0.97643745
-1.9150259 -1.566298 1.02625
-1.9150259 -1.6160221 0.97643745
-1.9150259 -1.6160221 1.02625
-1.9150259 -1.6657457 0.97643745
-1.9150259 -1.6657457 1.02625
-1.9150259 -1.7154694 0.97643745
-1.9150259 -1.7154694 1.02625
-1.9150259 -1.765193 0.97643745
-1.9150259 -1.765193 1.02625
-1.9150259 -1.8149171 0.97643745
-1.9150259 -1.8149171 1.02625
-1.9150259 -1.8646407 0.97643745
-1.9150259 -1.8646407 1.02625
-1.8652849 -1.1187844 0.029999999
-1.8652849 -1.1187844 0.079812497
-1.8652849 -1.1187844 0.12962499
-1.8652849 -1.1187844 0.1794375
-1.8652849 -1.1187844 0.22925
-1.8652849 -1.1187844 0.27906248
-1.8652849 -1.1187844 0.32887501
-1.8652849 -1.1187844 0.3786875
-1.8652849 -1.1187844 0.4285
-1.8652849 -1.1187844 0.47831249
-1.8652849 -1.1187844 0.52812499
-1.8652849 -1.1187844 0.57793748
-1.8652849 -1.1187844 0.62774998
-1.8652849 -1.1187844 0.67756248
-1.8652849 -1.1187844 0.72737497
-1.8652849 -1.1187844 0.77718747
-1.8652849 -1.1187844 0.82699996
-1.8652849 -1.1187844 0.87681246
-1.8652849 -1.1187844 0.92662495
-1.8652849 -1.1187844 0.97643745
-1.8652849 -1.1187844 1.02625
-1.8652849 -1.1685081 0.97643745
-1.8652849 -1.1685081 1.02625
-1.8652849 -1.2182317 0.97643745
-1.8652849 -1.2182317 1.02625
-1.8652849 -1.2679558 0.97643745
-1.8652849 -1.2679558 1.02625
-1.8652849 -1.3176794 0.97643745
-1.8652849 -1.3176794 1.02625
-1.8652849 -1.367403 0.97643745
-1.8652849 -1.367403 1.02625
-1.8652849 -1.4171271 0.97643745
-1.8652849 -1.4171271 1.02625
-1.8652849 -1.4668508 0.97643745
-1.8652849 -1.4668508 1.02625
-1.8652849 -1.5165744 0.97643745
-1.8652849 -1.5165744 1.02625
-1.8652849 -1.566298 0.97643745
-1.8652849 -1.566298 1.02625
-1.8652849 -1.6160221 0.97643745
-1.8652849 -1.6160221 1.02625
-1.8652849 -1.6657457 0.97643745
-1.8652849 -1.6657457 1.02625
-1.8652849 -1.7154694 0.97643745
-1.8652849 -1.7154694 1.02625
-1.8652849 -1.765193 0.97643745
-1.8652849 -1.765193 1.02625
-1.8652849 -1.8149171 0.97643745
-1.8652849 -1.8149171 1.02625
-1.8652849 -1.8646407 0.97643745
-1.8652849 -1.8646407 1.02625
-1.8155439 -1.1187844 0.029999999
-1.8155439 -1.1187844 0.079812497
-1.8155439 -1.1187844 0.12962499
-1.8155439 -1.1187844 0.1794375
-1.8155439 -1.1187844 0.22925
-1.8155439 -1.1187844 0.27906248
-1.8155439 -1.1187844 0.32887501
-1.8155439 -1.1187844 0.3786875
-1.8155439 -1.1187844 0.4285
-1.8155439 -1.1187844 0.47831249
-1.8155439 -1.1187844 0.52812499
-1.8155439 -1.1187844 0.57793748
-1.8155439 -1.1187844 0.62774998
-1.8155439 -1.1187844 0.67756248
-1.8155439 -1.1187844 0.72737497
-1.8155439 -1.1187844 0.77718747
-1.8155439 -1.1187844 0.82699996
-1.8155439 -1.1187844 0.87681246
-1.8155439 -1.1187844 0.92662495
-1.8155439 -1.1187844 0.97643745
-1.8155439 -1.1187844 1.02625
-1.8155439 -1.1685081 0.97643745
-1.8155439 -1.1685081 1.02625
-1.8155439 -1.2182317 0.97643745
-1.8155439 -1.2182317 1.02625
-1.8155439 -1.2679558 0.97643745
-1.8155439 -1.2679558 1.02625
-1.8155439 -1.3176794 0.97643745
-1.8155439 -1.3176794 1.02625
-1.8155439 -1.367403 0.97643745
-1.8155439 -1.367403 1.02625
-1.8155439 -1.4171271 0.97643745
-1.8155439 -1.4171271 1.02625
-1.8155439 -1.4668508 0.97643745
-1.8155439 -1.4668508 1.02625
-1.8155439 -1.5165744 0.97643745
-1.8155439 -1.5165744 1.02625
-1.8155439 -1.566298 0.97643745
-1.8155439 -1.566298 1.02625
-1.8155439 -1.6160221 0.97643745
-1.8155439 -1.6160221 1.02625
-1.8155439 -1.6657457 0.97643745
-1.8155439 -1.6657457 1.02625
-1.8155439 -1.7154694 0.97643745
-1.8155439 -1.7154694 1.02625
-1.8155439 -1.765193 0.97643745
-1.8155439 -1.765193 1.02625
-1.8155439 -1.8149171 0.97643745
-1.8155439 -1.8149171 1.02625
-1.8155439 -1.8646407 0.029999999
-1.8155439 -1.8646407 0.079812497
-1.8155439 -1.8646407 0.12962499
-1.8155439 -1.8646407 0.1794375
-1.8155439 -1.8646407 0.22925
-1.8155439 -1.8646407 0.27906248
-1.8155439 -1.8646407 0.32887501
-1.8155439 -1.8646407 0.3786875
-1.8155439 -1.8646407 0.4285
-1.8155439 -1.8646407 0.47831249
-1.8155439 -1.8646407 0.52812499
-1.8155439 -1.8646407 0.57793748
-1.8155439 -1.8646407 0.62774998
-1.8155439 -1.8646407 0.67756248
-1.8155439 -1.8646407 0.72737497
-1.8155439 -1.8646407 0.77718747
-1.8155439 -1.8646407 0.82699996
-1.8155439 -1.8646407 0.87681246
-1.8155439 -1.8646407 0.92662495
-1.8155439 -1.8646407 0.97643745
-1.8155439 -1.8646407 1.02625
-1.8155439 -1.9143643 0.029999999
-1.8155439 -1.9143643 0.079812497
-1.8155439 -1.9143643 0.12962499
-1.8155439 -1.9143643 0.1794375
-1.8155439 -1.9143643 0.22925
-1.8155439 -1.9143643 0.27906248
-1.8155439 -1.9143643 0.32887501
-1.8155439 -1.9143643 0.3786875
-1.8155439 -1.9143643 0.4285
-1.8155439 -1.9143643 0.47831249
-1.8155439 -1.9143643 0.52812499
-1.8155439 -1.9143643 0.57793748
-1.8155439 -1.9143643 0.62774998
-1.8155439 -1.9143643 0.67756248
-1.8155439 -1.9143643 0.72737497
-1.8155439 -1.9143643 0.77718747
-1.8155439 -1.9143643 0.82699996
-1.8155439 -1.9143643 0.87681246
-1.8155439 -1.9143643 0.92662495
-1.8155439 -1.9143643 0.97643745
-1.7658031 -1.1187844 0.97643745
-1.7658031 -1.1187844 1.02625
-1.7658031 -1.1685081 0.97643745
-1.7658031 -1.1685081 1.02625
-1.7658031 -1.2182317 0.97643745
-1.7658031 -1.2182317 1.02625
-1.7658031 -1.2679558 0.97643745
-1.7658031 -1.2679558 1.02625
-1.7658031 -1.3176794 0.97643745
-1.7658031 -1.3176794 1.02625
-1.7658031 -1.367403 0.97643745
-1.7658031 -1.367403 1.02625
-1.7658031 -1.4171271 0.97643745
-1.7658031 -1.4171271 1.02625
-1.7658031 -1.4668508 0.97643745
-1.7658031 -1.4668508 1.02625
-1.7658031 -1.5165744 0.97643745
-1.7658031 -1.5165744 1.02625
-1.7658031 -1.566298 0.97643745
-1.7658031 -1.566298 1.02625
-1.7658031 -1.6160221 0.97643745
-1.7658031 -1.6160221 1.02625
-1.7658031 -1.6657457 0.97643745
-1.7658031 -1.6657457 1.02625
-1.7658031 -1.7154694 0.97643745
-1.7658031 -1.7154694 1.02625
-1.7658031 -1.765193 0.97643745
-1.7658031 -1.765193 1.02625
-1.7658031 -1.8149171 0.97643745
-1.7658031 -1.8149171 1.02625
-1.7658031 -1.8646407 0.97643745
-1.7658031 -1.8646407 1.02625
1.7658031 1.864641 0.97643745
1.7658031 1.864641 1.02625
1.7658031 1.8149171 0.97643745
1.7658031 1.8149171 1.02625
1.7658031 1.7651935 0.97643745
1.7658031 1.7651935 1.02625
1.7658031 1.7154696 0.97643745
1.7658031 1.7154696 1.02625
1.7658031 1.665746 0.97643745
1.7658031 1.665746 1.02625
1.7658031 1.6160221 0.97643745
1.7658031 1.6160221 1.02625
1.7658031 1.5662985 0.97643745
1.7658031 1.5662985 1.02625
1.7658031 1.5165746 0.97643745
1.7658031 1.5165746 1.02625
1.7658031 1.466851 0.97643745
1.7658031 1.466851 1.02625
1.7658031 1.4171271 0.97643745
1.7658031 1.4171271 1.02625
1.7658031 1.3674035 0.97643745
1.7658031 1.3674035 1.02625
1.7658031 1.3176796 0.97643745
1.7658031 1.3176796 1.02625
1.7658031 1.2679558 0.97643745
1.7658031 1.2679558 1.02625
1.7658031 1.2182322 0.97643745
1.7658031 1.2182322 1.02625
1.7658031 1.1685083 0.97643745
1.7658031 1.1685083 1.02625
1.7658031 1.1187847 0.97643745
1.7658031 1.1187847 1.02625
1.8155439 1.9143648 0.029999999
1.8155439 1.9143648 0.079812497
1.8155439 1.9143648 0.12962499
1.8155439 1.9143648 0.1794375
1.8155439 1.9143648 0.22925
1.8155439 1.9143648 0.27906248
1.8155439 1.9143648 0.32887501
1.8155439 1.9143648 0.3786875
1.8155439 1.9143648 0.4285
1.8155439 1.9143648 0.47831249
1.8155439 1.9143648 0.52812499
1.8155439 1.9143648 0.57793748
1.8155439 1.9143648 0.62774998
1.8155439 1.9143648 0.67756248
1.8155439 1.9143648 0.72737497
1.8155439 1.9143648 0.77718747
1.8155439 1.9143648 0.82699996
1.8155439 1.9143648 0.87681246
1.8155439 1.9143648 0.92662495
1.8155439 1.9143648 0.97643745
1.8155439 1.864641 0.029999999
1.8155439 1.864641 0.079812497
1.8155439 1.864641 0.12962499
1.8155439 1.864641 0.1794375
1.8155439 1.864641 0.22925
1.8155439 1.864641 0.27906248
1.8155439 1.864641 0.32887501
1.8155439 1.864641 0.3786875
1.8155439 1.864641 0.4285
1.8155439 1.864641 0.47831249
1.8155439 1.864641 0.52812499
1.8155439 1.864641 0.57793748
1.8155439 1.864641 0.62774998
1.8155439 1.864641 0.67756248
1.8155439 1.864641 0.72737497
1.8155439 1.864641 0.77718747
1.8155439 1.864641 0.82699996
1.8155439 1.864641 0.87681246
1.8155439 1.864641 0.92662495
1.8155439 1.864641 0.97643745
1.8155439 1.864641 1.02625
1.8155439 1.8149171 0.97643745
1.8155439 1.8149171 1.02625
1.8155439 1.7651935 0.97643745
1.8155439 1.7651935 1.02625
1.8155439 1.7154696 0.97643745
1.8155439 1.7154696 1.02625
1.8155439 1.665746 0.97643745
1.8155439 1.665746 1.02625
1.8155439 1.6160221 0.97643745
1.8155439 1.6160221 1.02625
1.8155439 1.5662985 0.97643745
1.8155439 1.5662985 1.02625
1.8155439 1.5165746 0.97643745
1.8155439 1.5165746 1.02625
1.8155439 1.466851 0.97643745
1.8155439 1.466851 1.02625
1.8155439 1.4171271 0.97643745
1.8155439 1.4171271 1.02625
1.8155439 1.3674035 0.97643745
1.8155439 1.3674035 1.02625
1.8155439 1.3176796 0.97643745
1.8155439 1.3176796 1.02625
1.8155439 1.2679558 0.97643745
1.8155439 1.2679558 1.02625
1.8155439 1.2182322 0.97643745
1.8155439 1.2182322 1.02625
1.8155439 1.1685083 0.97643745
1.8155439 1.1685083 1.02625
1.8155439 1.1187847 0.029999999
1.8155439 1.1187847 0.079812497
1.8155439 1.1187847 0.12962499
1.8155439 1.1187847 0.1794375
1.8155439 1.1187847 0.22925
1.8155439 1.1187847 0.27906248
1.8155439 1.1187847 0.32887501
1.8155439 1.1187847 0.3786875
1.8155439 1.1187847 0.4285
1.8155439 1.1187847 0.47831249
1.8155439 1.1187847 0.52812499
1.8155439 1.1187847 0.57793748
1.8155439 1.1187847 0.62774998
1.8155439 1.1187847 0.67756248
1.8155439 1.1187847 0.72737497
1.8155439 1.1187847 0.77718747
1.8155439 1.1187847 0.82699996
1.8155439 1.1187847 0.87681246
1.8155439 1.1187847 0.92662495
1.8155439 1.1187847 0.97643745
1.8155439 1.1187847 1.02625
1.8652852 1.864641 0.97643745
1.8652852 1.864641 1.02625
1.8652852 1.8149171 0.97643745
1.8652852 1.8149171 1.02625
1.8652852 1.7651935 0.97643745
1.8652852 1.7651935 1.02625
1.8652852 1.7154696 0.97643745
1.8652852 1.7154696 1.02625
1.8652852 1.665746 0.97643745
1.8652852 1.665746 1.02625
1.8652852 1.6160221 0.97643745
1.8652852 1.6160221 1.02625
1.8652852 1.5662985 0.97643745
1.8652852 1.5662985 1.02625
1.8652852 1.5165746 0.97643745
1.8652852 1.5165746 1.02625
1.8652852 1.466851 0.97643745
1.8652852 1.466851 1.02625
1.8652852 1.4171271 0.97643745
1.8652852 1.4171271 1.02625
1.8652852 1.3674035 0.97643745
1.8652852 1.3674035 1.02625
1.8652852 1.3176796 0.97643745
1.8652852 1.3176796 1.02625
1.8652852 1.2679558 0.97643745
1.8652852 1.2679558 1.02625
1.8652852 1.2182322 0.97643745
1.8652852 1.2182322 1.02625
1.8652852 1.1685083 0.97643745
1.8652852 1.1685083 1.02625
1.8652852 1.1187847 0.029999999
1.8652852 1.1187847 0.079812497
1.8652852 1.1187847 0.12962499
1.8652852 1.1187847 0.1794375
1.8652852 1.1187847 0.22925
1.8652852 1.1187847 0.27906248
1.8652852 1.1187847 0.32887501
1.8652852 1.1187847 0.3786875
1.8652852 1.1187847 0.4285
1.8652852 1.1187847 0.47831249
1.8652852 1.1187847 0.52812499
1.8652852 1.1187847 0.57793748
1.8652852 1.1187847 0.62774998
1.8652852 1.1187847 0.67756248
1.8652852 1.1187847 0.72737497
1.8652852 1.1187847 0.77718747
1.8652852 1.1187847 0.82699996
1.8652852 1.1187847 0.87681246
1.8652852 1.1187847 0.92662495
1.8652852 1.1187847 0.97643745
1.8652852 1.1187847 1.02625
1.9150259 1.864641 0.97643745
1.9150259 1.864641 1.02625
1.9150259 1.8149171 0.97643745
1.9150259 1.8149171 1.02625
1.9150259 1.7651935 0.97643745
1.9150259 1.7651935 1.02625
1.9150259 1.7154696 0.97643745
1.9150259 1.7154696 1.02625
1.9150259 1.665746 0.97643745
1.9150259 1.665746 1.02625
1.9150259 1.6160221 0.97643745
1.9150259 1.6160221 1.02625
1.9150259 1.5662985 0.97643745
1.9150259 1.5662985 1.02625
1.9150259 1.5165746 0.97643745
1.9150259 1.5165746 1.02625
1.9150259 1.466851 0.97643745
1.9150259 1.466851 1.02625
1.9150259 1.4171271 0.97643745
1.9150259 1.4171271 1.02625
1.9150259 1.3674035 0.97643745
1.9150259 1.3674035 1.02625
1.9150259 1.3176796 0.97643745
1.9150259 1.3176796 1.02625
1.9150259 1.2679558 0.97643745
1.9150259 1.2679558 1.02625
1.9150259 1.2182322 0.97643745
1.9150259 1.2182322 1.02625
1.9150259 1.1685083 0.97643745
1.9150259 1.1685083 1.02625
1.9150259 1.1187847 0.97643745
1.9150259 1.1187847 1.02625
1.9647667 1.864641 0.97643745
1.9647667 1.864641 1.02625
1.9647667 1.8149171 0.97643745
1.9647667 1.8149171 1.02625
1.9647667 1.7651935 0.97643745
1.9647667 1.7651935 1.02625
1.9647667 1.7154696 0.97643745
1.9647667 1.7154696 1.02625
1.9647667 1.665746 0.97643745
1.9647667 1.665746 1.02625
1.9647667 1.6160221 0.97643745
1.9647667 1.6160221 1.02625
1.9647667 1.5662985 0.97643745
1.9647667 1.5662985 1.02625
1.9647667 1.5165746 0.97643745
1.9647667 1.5165746 1.02625
1.9647667 1.466851 0.97643745
1.9647667 1.466851 1.02625
1.9647667 1.4171271 0.97643745
1.9647667 1.4171271 1.02625
1.9647667 1.3674035 0.97643745
1.9647667 1.3674035 1.02625
1.9647667 1.3176796 0.97643745
1.9647667 1.3176796 1.02625
1.9647667 1.2679558 0.97643745
1.9647667 1.2679558 1.02625
1.9647667 1.2182322 0.97643745
1.9647667 1.2182322 1.02625
1.9647667 1.1685083 0.97643745
1.9647667 1.1685083 1.02625
1.9647667 1.1187847 0.97643745
1.9647667 1.1187847 1.02625
2.014508 1.864641 0.97643745
2.014508 1.864641 1.02625
2.014508 1.8149171 0.97643745
2.014508 1.8149171 1.02625
2.014508 1.7651935 0.97643745
2.014508 1.7651935 1.02625
2.014508 1.7154696 0.97643745
2.014508 1.7154696 1.02625
2.014508 1.665746 0.97643745
2.014508 1.665746 1.02625
2.014508 1.6160221 0.97643745
2.014508 1.6160221 1.02625
2.014508 1.5662985 0.97643745
2.014508 1.5662985 1.02625
2.014508 1.5165746 0.97643745
2.014508 1.5165746 1.02625
2.014508 1.466851 0.97643745
2.014508 1.466851 1.02625
2.014508 1.4171271 0.97643745
2.014508 1.4171271 1.02625
2.014508 1.3674035 0.97643745
2.014508 1.3674035 1.02625
2.014508 1.3176796 0.97643745
2.014508 1.3176796 1.02625
2.014508 1.2679558 0.97643745
2.014508 1.2679558 1.02625
2.014508 1.2182322 0.97643745
2.014508 1.2182322 1.02625
2.014508 1.1685083 0.97643745
2.014508 1.1685083 1.02625
2.014508 1.1187847 0.97643745
2.014508 1.1187847 1.02625
2.0642488 1.864641 0.97643745
2.0642488 1.864641 1.02625
2.0642488 1.8149171 0.97643745
2.0642488 1.8149171 1.02625
2.0642488 1.7651935 0.97643745
2.0642488 1.7651935 1.02625
2.0642488 1.7154696 0.97643745
2.0642488 1.7154696 1.02625
2.0642488 1.665746 0.97643745
2.0642488 1.665746 1.02625
2.0642488 1.6160221 0.97643745
2.0642488 1.6160221 1.02625
2.0642488 1.5662985 0.97643745
2.0642488 1.5662985 1.02625
2.0642488 1.5165746 0.97643745
2.0642488 1.5165746 1.02625
2.0642488 1.466851 0.97643745
2.0642488 1.466851 1.02625
2.0642488 1.4171271 0.97643745
2.0642488 1.4171271 1.02625
2.0642488 1.3674035 0.97643745
2.0642488 1.3674035 1.02625
2.0642488 1.3176796 0.97643745
2.0642488 1.3176796 1.02625
2.0642488 1.2679558 0.97643745
2.0642488 1.2679558 1.02625
2.0642488 1.2182322 0.97643745
2.0642488 1.2182322 1.02625
2.0642488 1.1685083 0.97643745
2.0642488 1.1685083 1.02625
2.0642488 1.1187847 0.97643745
2.0642488 1.1187847 1.02625
2.1139896 1.864641 0.97643745
2.1139896 1.864641 1.02625
2.1139896 1.8149171 0.97643745
2.1139896 1.8149171 1.02625
2.1139896 1.7651935 0.97643745
2.1139896 1.7651935 1.02625
2.1139896 1.7154696 0.97643745
2.1139896 1.7154696 1.02625
2.1139896 1.665746 0.97643745
2.1139896 1.665746 1.02625
2.1139896 1.6160221 0.97643745
2.1139896 1.6160221 1.02625
2.1139896 1.5662985 0.97643745
2.1139896 1.5662985 1.02625
2.1139896 1.5165746 0.97643745
2.1139896 1.5165746 1.02625
2.1139896 1.466851 0.97643745
2.1139896 1.466851 1.02625
2.1139896 1.4171271 0.97643745
2.1139896 1.4171271 1.02625
2.1139896 1.3674035 0.97643745
2.1139896 1.3674035 1.02625
2.1139896 1.3176796 0.97643745
2.1139896 1.3176796 1.02625
2.1139896 1.2679558 0.97643745
2.1139896 1.2679558 1.02625
2.1139896 1.2182322 0.97643745
2.1139896 1.2182322 1.02625
2.1139896 1.1685083 0.97643745
2.1139896 1.1685083 1.02625
2.1139896 1.1187847 0.97643745
2.1139896 1.1187847 1.02625
2.1637309 1.864641 0.97643745
2.1637309 1.864641 1.02625
2.1637309 1.8149171 0.97643745
2.1637309 1.8149171 1.02625
2.1637309 1.7651935 0.97643745
2.1637309 1.7651935 1.02625
2.1637309 1.7154696 0.97643745
2.1637309 1.7154696 1.02625
2.1637309 1.665746 0.97643745
2.1637309 1.665746 1.02625
2.1637309 1.6160221 0.97643745
2.1637309 1.6160221 1.02625
2.1637309 1.5662985 0.97643745
2.1637309 1.5662985 1.02625
2.1637309 1.5165746 0.97643745
2.1637309 1.5165746 1.02625
2.1637309 1.466851 0.97643745
2.1637309 1.466851 1.02625
2.1637309 1.4171271 0.97643745
2.1637309 1.4171271 1.02625
2.1637309 1.3674035 0.97643745
2.1637309 1.3674035 1.02625
2.1637309 1.3176796 0.97643745
2.1637309 1.3176796 1.02625
2.1637309 1.2679558 0.97643745
2.1637309 1.2679558 1.02625
2.1637309 1.2182322 0.97643745
2.1637309 1.2182322 1.02625
2.1637309 1.1685083 0.97643745
2.1637309 1.1685083 1.02625
2.1637309 1.1187847 0.97643745
2.1637309 1.1187847 1.02625
2.2134717 1.864641 0.97643745
2.2134717 1.864641 1.02625
2.2134717 1.8149171 0.97643745
2.2134717 1.8149171 1.02625
2.2134717 1.7651935 0.97643745
2.2134717 1.7651935 1.02625
2.2134717 1.7154696 0.97643745
2.2134717 1.7154696 1.02625
2.2134717 1.665746 0.97643745
2.2134717 1.665746 1.02625
2.2134717 1.6160221 0.97643745
2.2134717 1.6160221 1.02625
2.2134717 1.5662985 0.97643745
2.2134717 1.5662985 1.02625
2.2134717 1.5165746 0.97643745
2.2134717 1.5165746 1.02625
2.2134717 1.466851 0.97643745
2.2134717 1.466851 1.02625
2.2134717 1.4171271 0.97643745
2.2134717 1.4171271 1.02625
2.2134717 1.3674035 0.97643745
2.2134717 1.3674035 1.02625
2.2134717 1.3176796 0.97643745
2.2134717 1.3176796 1.02625
2.2134717 1.2679558 0.97643745
2.2134717 1.2679558 1.02625
2.2134717 1.2182322 0.97643745
2.2134717 1.2182322 1.02625
2.2134717 1.1685083 0.97643745
2.2134717 1.1685083 1.02625
2.2134717 1.1187847 0.97643745
2.2134717 1.1187847 1.02625
2.2632124 1.864641 0.97643745
2.2632124 1.864641 1.02625
2.2632124 1.8149171 0.97643745
2.2632124 1.8149171 1.02625
2.2632124 1.7651935 0.97643745
2.2632124 1.7651935 1.02625
2.2632124 1.7154696 0.97643745
2.2632124 1.7154696 1.02625
2.2632124 1.665746 0.97643745
2.2632124 1.665746 1.02625
2.2632124 1.6160221 0.97643745
2.2632124 1.6160221 1.02625
2.2632124 1.5662985 0.97643745
2.2632124 1.5662985 1.02625
2.2632124 1.5165746 0.97643745
2.2632124 1.5165746 1.02625
2.2632124 1.466851 0.97643745
2.2632124 1.466851 1.02625
2.2632124 1.4171271 0.97643745
2.2632124 1.4171271 1.02625
2.2632124 1.3674035 0.97643745
2.2632124 1.3674035 1.02625
2.2632124 1.3176796 0.97643745
2.2632124 1.3176796 1.02625
2.2632124 1.2679558 0.97643745
2.2632124 1.2679558 1.02625
2.2632124 1.2182322 0.97643745
2.2632124 1.2182322 1.02625
2.2632124 1.1685083 0.97643745
2.2632124 1.1685083 1.02625
2.2632124 1.1187847 0.97643745
2.2632124 1.1187847 1.02625
2.3129532 1.864641 0.97643745
2.3129532 1.864641 1.02625
2.3129532 1.8149171 0.97643745
2.3129532 1.8149171 1.02625
2.3129532 1.7651935 0.97643745
2.3129532 1.7651935 1.02625
2.3129532 1.7154696 0.97643745
2.3129532 1.7154696 1.02625
2.3129532 1.665746 0.97643745
2.3129532 1.665746 1.02625
2.3129532 1.6160221 0.97643745
2.3129532 1.6160221 1.02625
2.3129532 1.5662985 0.97643745
2.3129532 1.5662985 1.02625
2.3129532 1.5165746 0.97643745
2.3129532 1.5165746 1.02625
2.3129532 1.466851 0.97643745
2.3129532 1.466851 1.02625
2.3129532 1.4171271 0.97643745
2.3129532 1.4171271 1.02625
2.3129532 1.3674035 0.97643745
2.3129532 1.3674035 1.02625
2.3129532 1.3176796 0.97643745
2.3129532 1.3176796 1.02625
2.3129532 1.2679558 0.97643745
2.3129532 1.2679558 1.02625
2.3129532 1.2182322 0.97643745
2.3129532 1.2182322 1.02625
2.3129532 1.1685083 0.97643745
2.3129532 1.1685083 1.02625
2.3129532 1.1187847 0.97643745
2.3129532 1.1187847 1.02625
2.3626945 1.864641 0.97643745
2.3626945 1.864641 1.02625
2.3626945 1.8149171 0.97643745
2.3626945 1.8149171 1.02625
2.3626945 1.7651935 0.97643745
2.3626945 1.7651935 1.02625
2.3626945 1.7154696 0.97643745
2.3626945 1.7154696 1.02625
2.3626945 1.665746 0.97643745
2.3626945 1.665746 1.02625
2.3626945 1.6160221 0.97643745
2.3626945 1.6160221 1.02625
2.3626945 1.5662985 0.97643745
2.3626945 1.5662985 1.02625
2.3626945 1.5165746 0.97643745
2.3626945 1.5165746 1.02625
2.3626945 1.466851 0.97643745
2.3626945 1.466851 1.02625
2.3626945 1.4171271 0.97643745
2.3626945 1.4171271 1.02625
2.3626945 1.3674035 0.97643745
2.3626945 1.3674035 1.02625
2.3626945 1.3176796 0.97643745
2.3626945 1.3176796 1.02625
2.3626945 1.2679558 0.97643745
2.3626945 1.2679558 1.02625
2.3626945 1.2182322 0.97643745
2.3626945 1.2182322 1.02625
2.3626945 1.1685083 0.97643745
2.3626945 1.1685083 1.02625
2.3626945 1.1187847 0.97643745
2.3626945 1.1187847 1.02625
2.4124353 1.864641 0.97643745
2.4124353 1.864641 1.02625
2.4124353 1.8149171 0.97643745
2.4124353 1.8149171 1.02625
2.4124353 1.7651935 0.97643745
2.4124353 1.7651935 1.02625
2.4124353 1.7154696 0.97643745
2.4124353 1.7154696 1.02625
2.4124353 1.665746 0.97643745
2.4124353 1.665746 1.02625
2.4124353 1.6160221 0.97643745
2.4124353 1.6160221 1.02625
2.4124353 1.5662985 0.97643745
2.4124353 1.5662985 1.02625
2.4124353 1.5165746 0.97643745
2.4124353 1.5165746 1.02625
2.4124353 1.466851 0.97643745
2.4124353 1.466851 1.02625
2.4124353 1.4171271 0.97643745
2.4124353 1.4171271 1.02625
2.4124353 1.3674035 0.97643745
2.4124353 1.3674035 1.02625
2.4124353 1.3176796 0.97643745
2.4124353 1.3176796 1.02625
2.4124353 1.2679558 0.97643745
2.4124353 1.2679558 1.02625
2.4124353 1.2182322 0.97643745
2.4124353 1.2182322 1.02625
2.4124353 1.1685083 0.97643745
2.4124353 1.1685083 1.02625
2.4124353 1.1187847 0.97643745
2.4124353 1.1187847 1.02625
2.4621761 1.864641 0.97643745
2.4621761 1.864641 1.02625
2.4621761 1.8149171 0.97643745
2.4621761 1.8149171 1.02625
2.4621761 1.7651935 0.97643745
2.4621761 1.7651935 1.02625
2.4621761 1.7154696 0.97643745
2.4621761 1.7154696 1.02625
2.4621761 1.665746 0.97643745
2.4621761 1.665746 1.02625
2.4621761 1.6160221 0.97643745
2.4621761 1.6160221 1.02625
2.4621761 1.5662985 0.97643745
2.4621761 1.5662985 1.02625
2.4621761 1.5165746 0.97643745
2.4621761 1.5165746 1.02625
2.4621761 1.466851 0.97643745
2.4621761 1.466851 1.02625
2.4621761 1.4171271 0.97643745
2.4621761 1.4171271 1.02625
2.4621761 1.3674035 0.97643745
2.4621761 1.3674035 1.02625
2.4621761 1.3176796 0.97643745
2.4621761 1.3176796 1.02625
2.4621761 1.2679558 0.97643745
2.4621761 1.2679558 1.02625
2.4621761 1.2182322 0.97643745
2.4621761 1.2182322 1.02625
2.4621761 1.1685083 0.97643745
2.4621761 1.1685083 1.02625
2.4621761 1.1187847 0.97643745
2.4621761 1.1187847 1.02625
2.5119174 1.864641 0.97643745
2.5119174 1.864641 1.02625
2.5119174 1.8149171 0.97643745
2.5119174 1.8149171 1.02625
2.5119174 1.7651935 0.97643745
2.5119174 1.7651935 1.02625
2.5119174 1.7154696 0.97643745
2.5119174 1.7154696 1.02625
2.5119174 1.665746 0.97643745
2.5119174 1.665746 1.02625
2.5119174 1.6160221 0.97643745
2.5119174 1.6160221 1.02625
2.5119174 1.5662985 0.97643745
2.5119174 1.5662985 1.02625
2.5119174 1.5165746 0.97643745
2.5119174 1.5165746 1.02625
2.5119174 1.466851 0.97643745
2.5119174 1.466851 1.02625
2.5119174 1.4171271 0.97643745
2.5119174 1.4171271 1.02625
2.5119174 1.3674035 0.97643745
2.5119174 1.3674035 1.02625
2.5119174 1.3176796 0.97643745
2.5119174 1.3176796 1.02625
2.5119174 1.2679558 0.97643745
2.5119174 1.2679558 1.02625
2.5119174 1.2182322 0.97643745
2.5119174 1.2182322 1.02625
2.5119174 1.1685083 0.97643745
2.5119174 1.1685083 1.02625
2.5119174 1.1187847 0.97643745
2.5119174 1.1187847 1.02625
2.5616581 1.864641 0.97643745
2.5616581 1.864641 1.02625
2.5616581 1.8149171 0.97643745
2.5616581 1.8149171 1.02625
2.5616581 1.7651935 0.97643745
2.5616581 1.7651935 1.02625
2.5616581 1.7154696 0.97643745
2.5616581 1.7154696 1.02625
2.5616581 1.665746 0.97643745
2.5616581 1.665746 1.02625
2.5616581 1.6160221 0.97643745
2.5616581 1.6160221 1.02625
2.5616581 1.5662985 0.97643745
2.5616581 1.5662985 1.02625
2.5616581 1.5165746 0.97643745
2.5616581 1.5165746 1.02625
2.5616581 1.466851 0.97643745
2.5616581 1.466851 1.02625
2.5616581 1.4171271 0.97643745
2.5616581 1.4171271 1.02625
2.5616581 1.3674035 0.97643745
2.5616581 1.3674035 1.02625
2.5616581 1.3176796 0.97643745
2.5616581 1.3176796 1.02625
2.5616581 1.2679558 0.97643745
2.5616581 1.2679558 1.02625
2.5616581 1.2182322 0.97643745
2.5616581 1.2182322 1.02625
2.5616581 1.1685083 0.97643745
2.5616581 1.1685083 1.02625
2.5616581 1.1187847 0.97643745
2.5616581 1.1187847 1.02625
2.6113989 1.864641 0.97643745
2.6113989 1.864641 1.02625
2.6113989 1.8149171 0.97643745
2.6113989 1.8149171 1.02625
2.6113989 1.7651935 0.97643745
2.6113989 1.7651935 1.02625
2.6113989 1.7154696 0.97643745
2.6113989 1.7154696 1.02625
2.6113989 1.665746 0.97643745
2.6113989 1.665746 1.02625
2.6113989 1.6160221 0.97643745
2.6113989 1.6160221 1.02625
2.6113989 1.5662985 0.97643745
2.6113989 1.5662985 1.02625
2.6113989 1.5165746 0.97643745
2.6113989 1.5165746 1.02625
2.6113989 1.466851 0.97643745
2.6113989 1.466851 1.02625
2.6113989 1.4171271 0.97643745
2.6113989 1.4171271 1.02625
2.6113989 1.3674035 0.97643745
2.6113989 1.3674035 1.02625
2.6113989 1.3176796 0.97643745
2.6113989 1.3176796 1.02625
2.6113989 1.2679558 0.97643745
2.6113989 1.2679558 1.02625
2.6113989 1.2182322 0.97643745
2.6113989 1.2182322 1.02625
2.6113989 1.1685083 0.97643745
2.6113989 1.1685083 1.02625
2.6113989 1.1187847 0.97643745
2.6113989 1.1187847 1.02625
2.6611402 1.864641 0.97643745
2.6611402 1.864641 1.02625
2.6611402 1.8149171 0.97643745
2.6611402 1.8149171 1.02625
2.6611402 1.7651935 0.97643745
2.6611402 1.7651935 1.02625
2.6611402 1.7154696 0.97643745
2.6611402 1.7154696 1.02625
2.6611402 1.665746 0.97643745
2.6611402 1.665746 1.02625
2.6611402 1.6160221 0.97643745
2.6611402 1.6160221 1.02625
2.6611402 1.5662985 0.97643745
2.6611402 1.5662985 1.02625
2.6611402 1.5165746 0.97643745
2.6611402 1.5165746 1.02625
2.6611402 1.466851 0.97643745
2.6611402 1.466851 1.02625
2.6611402 1.4171271 0.97643745
2.6611402 1.4171271 1.02625
2.6611402 1.3674035 0.97643745
2.6611402 1.3674035 1.02625
2.6611402 1.3176796 0.97643745
2.6611402 1.3176796 1.02625
2.6611402 1.2679558 0.97643745
2.6611402 1.2679558 1.02625
2.6611402 1.2182322 0.97643745
2.6611402 1.2182322 1.02625
2.6611402 1.1685083 0.97643745
2.6611402 1.1685083 1.02625
2.6611402 1.1187847 0.97643745
2.6611402 1.1187847 1.02625
2.710881 1.864641 0.97643745
2.710881 1.864641 1.02625
2.710881 1.8149171 0.97643745
2.710881 1.8149171 1.02625
2.710881 1.7651935 0.97643745
2.710881 1.7651935 1.02625
2.710881 1.7154696 0.97643745
2.710881 1.7154696 1.02625
2.710881 1.665746 0.97643745
2.710881 1.665746 1.02625
2.710881 1.6160221 0.97643745
2.710881 1.6160221 1.02625
2.710881 1.5662985 0.97643745
2.710881 1.5662985 1.02625
2.710881 1.5165746 0.97643745
2.710881 1.5165746 1.02625
2.710881 1.466851 0.97643745
2.710881 1.466851 1.02625
2.710881 1.4171271 0.97643745
2.710881 1.4171271 1.02625
2.710881 1.3674035 0.97643745
2.710881 1.3674035 1.02625
2.710881 1.3176796 0.97643745
2.710881 1.3176796 1.02625
2.710881 1.2679558 0.97643745
2.710881 1.2679558 1.02625
2.710881 1.2182322 0.97643745
2.710881 1.2182322 1.02625
2.710881 1.1685083 0.97643745
2.710881 1.1685083 1.02625
2.710881 1.1187847 0.97643745
2.710881 1.1187847 1.02625
2.7606218 1.864641 0.97643745
2.7606218 1.864641 1.02625
2.7606218 1.8149171 0.97643745
2.7606218 1.8149171 1.02625
2.7606218 1.7651935 0.97643745
2.7606218 1.7651935 1.02625
2.7606218 1.7154696 0.97643745
2.7606218 1.7154696 1.02625
2.7606218 1.665746 0.97643745
2.7606218 1.665746 1.02625
2.7606218 1.6160221 0.97643745
2.7606218 1.6160221 1.02625
2.7606218 1.5662985 0.97643745
2.7606218 1.5662985 1.02625
2.7606218 1.5165746 0.97643745
2.7606218 1.5165746 1.02625
2.7606218 1.466851 0.97643745
2.7606218 1.466851 1.02625
2.7606218 1.4171271 0.97643745
2.7606218 1.4171271 1.02625
2.7606218 1.3674035 0.97643745
2.7606218 1.3674035 1.02625
2.7606218 1.3176796 0.97643745
2.7606218 1.3176796 1.02625
2.7606218 1.2679558 0.97643745
2.7606218 1.2679558 1.02625
2.7606218 1.2182322 0.97643745
2.7606218 1.2182322 1.02625
2.7606218 1.1685083 0.97643745
2.7606218 1.1685083 1.02625
2.7606218 1.1187847 0.97643745
2.7606218 1.1187847 1.02625
2.8103626 1.864641 0.97643745
2.8103626 1.864641 1.02625
2.8103626 1.8149171 0.97643745
2.8103626 1.8149171 1.02625
2.8103626 1.7651935 0.97643745
2.8103626 1.7651935 1.02625
2.8103626 1.7154696 0.97643745
2.8103626 1.7154696 1.02625
2.8103626 1.665746 0.97643745
2.8103626 1.665746 1.02625
2.8103626 1.6160221 0.97643745
2.8103626 1.6160221 1.02625
2.8103626 1.5662985 0.97643745
2.8103626 1.5662985 1.02625
2.8103626 1.5165746 0.97643745
2.8103626 1.5165746 1.02625
2.8103626 1.466851 0.97643745
2.8103626 1.466851 1.02625
2.8103626 1.4171271 0.97643745
2.8103626 1.4171271 1.02625
2.8103626 1.3674035 0.97643745
2.8103626 1.3674035 1.02625
2.8103626 1.3176796 0.97643745
2.8103626 1.3176796 1.02625
2.8103626 1.2679558 0.97643745
2.8103626 1.2679558 1.02625
2.8103626 1.2182322 0.97643745
2.8103626 1.2182322 1.02625
2.8103626 1.1685083 0.97643745
2.8103626 1.1685083 1.02625
2.8103626 1.1187847 0.97643745
2.8103626 1.1187847 1.02625
2.8601038 1.864641 0.97643745
2.8601038 1.864641 1.02625
2.8601038 1.8149171 0.97643745
2.8601038 1.8149171 1.02625
2.8601038 1.7651935 0.97643745
2.8601038 1.7651935 1.02625
2.8601038 1.7154696 0.97643745
2.8601038 1.7154696 1.02625
2.8601038 1.665746 0.97643745
2.8601038 1.665746 1.02625
2.8601038 1.6160221 0.97643745
2.8601038 1.6160221 1.02625
2.8601038 1.5662985 0.97643745
2.8601038 1.5662985 1.02625
2.8601038 1.5165746 0.97643745
2.8601038 1.5165746 1.02625
2.8601038 1.466851 0.97643745
2.8601038 1.466851 1.02625
2.8601038 1.4171271 0.97643745
2.8601038 1.4171271 1.02625
2.8601038 1.3674035 0.97643745
2.8601038 1.3674035 1.02625
2.8601038 1.3176796 0.97643745
2.8601038 1.3176796 1.02625
2.8601038 1.2679558 0.97643745
2.8601038 1.2679558 1.02625
2.8601038 1.2182322 0.97643745
2.8601038 1.2182322 1.02625
2.8601038 1.1685083 0.97643745
2.8601038 1.1685083 1.02625
2.8601038 1.1187847 0.97643745
2.8601038 1.1187847 1.02625
2.9098446 1.864641 0.97643745
2.9098446 1.864641 1.02625
2.9098446 1.8149171 0.97643745
2.9098446 1.8149171 1.02625
2.9098446 1.7651935 0.97643745
2.9098446 1.7651935 1.02625
2.9098446 1.7154696 0.97643745
2.9098446 1.7154696 1.02625
2.9098446 1.665746 0.97643745
2.9098446 1.665746 1.02625
2.9098446 1.6160221 0.97643745
2.9098446 1.6160221 1.02625
2.9098446 1.5662985 0.97643745
2.9098446 1.5662985 1.02625
2.9098446 1.5165746 0.97643745
2.9098446 1.5165746 1.02625
2.9098446 1.466851 0.97643745
2.9098446 1.466851 1.02625
2.9098446 1.4171271 0.97643745
2.9098446 1.4171271 1.02625
2.9098446 1.3674035 0.97643745
2.9098446 1.3674035 1.02625
2.9098446 1.3176796 0.97643745
2.9098446 1.3176796 1.02625
2.9098446 1.2679558 0.97643745
2.9098446 1.2679558 1.02625
2.9098446 1.2182322 0.97643745
2.9098446 1.2182322 1.02625
2.9098446 1.1685083 0.97643745
2.9098446 1.1685083 1.02625
2.9098446 1.1187847 0.97643745
2.9098446 1.1187847 1.02625
2.9595854 1.864641 0.97643745
2.9595854 1.864641 1.02625
2.9595854 1.8149171 0.97643745
2.9595854 1.8149171 1.02625
2.9595854 1.7651935 0.97643745
2.9595854 1.7651935 1.02625
2.9595854 1.7154696 0.97643745
2.9595854 1.7154696 1.02625
2.9595854 1.665746 0.97643745
2.9595854 1.665746 1.02625
2.9595854 1.6160221 0.97643745
2.9595854 1.6160221 1.02625
2.9595854 1.5662985 0.97643745
2.9595854 1.5662985 1.02625
2.9595854 1.5165746 0.97643745
2.9595854 1.5165746 1.02625
2.9595854 1.466851 0.97643745
2.9595854 1.466851 1.02625
2.9595854 1.4171271 0.97643745
2.9595854 1.4171271 1.02625
2.9595854 1.3674035 0.97643745
2.9595854 1.3674035 1.02625
2.9595854 1.3176796 0.97643745
2.9595854 1.3176796 1.02625
2.9595854 1.2679558 0.97643745
2.9595854 1.2679558 1.02625
2.9595854 1.2182322 0.97643745
2.9595854 1.2182322 1.02625
2.9595854 1.1685083 0.97643745
2.9595854 1.1685083 1.02625
2.9595854 1.1187847 0.97643745
2.9595854 1.1187847 1.02625
3.0093267 1.864641 0.97643745
3.0093267 1.864641 1.02625
3.0093267 1.8149171 0.97643745
3.0093267 1.8149171 1.02625
3.0093267 1.7651935 0.97643745
3.0093267 1.7651935 1.02625
3.0093267 1.7154696 0.97643745
3.0093267 1.7154696 1.02625
3.0093267 1.665746 0.97643745
3.0093267 1.665746 1.02625
3.0093267 1.6160221 0.97643745
3.0093267 1.6160221 1.02625
3.0093267 1.5662985 0.97643745
3.0093267 1.5662985 1.02625
3.0093267 1.5165746 0.97643745
3.0093267 1.5165746 1.02625
3.0093267 1.466851 0.97643745
3.0093267 1.466851 1.02625
3.0093267 1.4171271 0.97643745
3.0093267 1.4171271 1.02625
3.0093267 1.3674035 0.97643745
3.0093267 1.3674035 1.02625
3.0093267 1.3176796 0.97643745
3.0093267 1.3176796 1.02625
3.0093267 1.2679558 0.97643745
3.0093267 1.2679558 1.02625
3.0093267 1.2182322 0.97643745
3.0093267 1.2182322 1.02625
3.0093267 1.1685083 0.97643745
3.0093267 1.1685083 1.02625
3.0093267 1.1187847 0.97643745
3.0093267 1.1187847 1.02625
3.0590675 1.864641 0.97643745
3.0590675 1.864641 1.02625
3.0590675 1.8149171 0.97643745
3.0590675 1.8149171 1.02625
3.0590675 1.7651935 0.97643745
3.0590675 1.7651935 1.02625
3.0590675 1.7154696 0.97643745
3.0590675 1.7154696 1.02625
3.0590675 1.665746 0.97643745
3.0590675 1.665746 1.02625
3.0590675 1.6160221 0.97643745
3.0590675 1.6160221 1.02625
3.0590675 1.5662985 0.97643745
3.0590675 1.5662985 1.02625
3.0590675 1.5165746 0.97643745
3.0590675 1.5165746 1.02625
3.0590675 1.466851 0.97643745
3.0590675 1.466851 1.02625
3.0590675 1.4171271 0.97643745
3.0590675 1.4171271 1.02625
3.0590675 1.3674035 0.97643745
3.0590675 1.3674035 1.02625
3.0590675 1.3176796 0.97643745
3.0590675 1.3176796 1.02625
3.0590675 1.2679558 0.97643745
3.0590675 1.2679558 1.02625
3.0590675 1.2182322 0.97643745
3.0590675 1.2182322 1.02625
3.0590675 1.1685083 0.97643745
3.0590675 1.1685083 1.02625
3.0590675 1.1187847 0.97643745
3.0590675 1.1187847 1.02625
3.1088083 1.864641 0.97643745
3.1088083 1.864641 1.02625
3.1088083 1.8149171 0.97643745
3.1088083 1.8149171 1.02625
3.1088083 1.7651935 0.97643745
3.1088083 1.7651935 1.02625
3.1088083 1.7154696 0.97643745
3.1088083 1.7154696 1.02625
3.1088083 1.665746 0.97643745
3.1088083 1.665746 1.02625
3.1088083 1.6160221 0.97643745
3.1088083 1.6160221 1.02625
3.1088083 1.5662985 0.97643745
3.1088083 1.5662985 1.02625
3.1088083 1.5165746 0.97643745
3.1088083 1.5165746 1.02625
3.1088083 1.466851 0.97643745
3.1088083 1.466851 1.02625
3.1088083 1.4171271 0.97643745
3.1088083 1.4171271 1.02625
3.1088083 1.3674035 0.97643745
3.1088083 1.3674035 1.02625
3.1088083 1.3176796 0.97643745
3.1088083 1.3176796 1.02625
3.1088083 1.2679558 0.97643745
3.1088083 1.2679558 1.02625
3.1088083 1.2182322 0.97643745
3.1088083 1.2182322 1.02625
3.1088083 1.1685083 0.97643745
3.1088083 1.1685083 1.02625
3.1088083 1.1187847 0.97643745
3.1088083 1.1187847 1.02625
3.1585495 1.864641 0.029999999
3.1585495 1.864641 0.079812497
3.1585495 1.864641 0.12962499
3.1585495 1.864641 0.1794375
3.1585495 1.864641 0.22925
3.1585495 1.864641 0.27906248
3.1585495 1.864641 0.32887501
3.1585495 1.864641 0.3786875
3.1585495 1.864641 0.4285
3.1585495 1.864641 0.47831249
3.1585495 1.864641 0.52812499
3.1585495 1.864641 0.57793748
3.1585495 1.864641 0.62774998
3.1585495 1.864641 0.67756248
3.1585495 1.864641 0.72737497
3.1585495 1.864641 0.77718747
3.1585495 1.864641 0.82699996
3.1585495 1.864641 0.87681246
3.1585495 1.864641 0.92662495
3.1585495 1.864641 0.97643745
3.1585495 1.864641 1.02625
3.1585495 1.8149171 0.97643745
3.1585495 1.8149171 1.02625
3.1585495 1.7651935 0.97643745
3.1585495 1.7651935 1.02625
3.1585495 1.7154696 0.97643745
3.1585495 1.7154696 1.02625
3.1585495 1.665746 0.97643745
3.1585495 1.665746 1.02625
3.1585495 1.6160221 0.97643745
3.1585495 1.6160221 1.02625
3.1585495 1.5662985 0.97643745
3.1585495 1.5662985 1.02625
3.1585495 1.5165746 0.97643745
3.1585495 1.5165746 1.02625
3.1585495 1.466851 0.97643745
3.1585495 1.466851 1.02625
3.1585495 1.4171271 0.97643745
3.1585495 1.4171271 1.02625
3.1585495 1.3674035 0.97643745
3.1585495 1.3674035 1.02625
3.1585495 1.3176796 0.97643745
3.1585495 1.3176796 1.02625
3.1585495 1.2679558 0.97643745
3.1585495 1.2679558 1.02625
3.1585495 1.2182322 0.97643745
3.1585495 1.2182322 1.02625
3.1585495 1.1685083 0.97643745
3.1585495 1.1685083 1.02625
3.1585495 1.1187847 0.029999999
3.1585495 1.1187847 0.079812497
3.1585495 1.1187847 0.12962499
3.1585495 1.1187847 0.1794375
3.1585495 1.1187847 0.22925
3.1585495 1.1187847 0.27906248
3.1585495 1.1187847 0.32887501
3.1585495 1.1187847 0.3786875
3.1585495 1.1187847 0.4285
3.1585495 1.1187847 0.47831249
3.1585495 1.1187847 0.52812499
3.1585495 1.1187847 0.57793748
3.1585495 1.1187847 0.62774998
3.1585495 1.1187847 0.67756248
3.1585495 1.1187847 0.72737497
3.1585495 1.1187847 0.77718747
3.1585495 1.1187847 0.82699996
3.1585495 1.1187847 0.87681246
3.1585495 1.1187847 0.92662495
3.1585495 1.1187847 0.97643745
3.1585495 1.1187847 1.02625
3.2082903 1.864641 0.029999999
3.2082903 1.864641 0.079812497
3.2082903 1.864641 0.12962499
3.2082903 1.864641 0.1794375
3.2082903 1.864641 0.22925
3.2082903 1.864641 0.27906248
3.2082903 1.864641 0.32887501
3.2082903 1.864641 0.3786875
3.2082903 1.864641 0.4285
3.2082903 1.864641 0.47831249
3.2082903 1.864641 0.52812499
3.2082903 1.864641 0.57793748
3.2082903 1.864641 0.62774998
3.2082903 1.864641 0.67756248
3.2082903 1.864641 0.72737497
3.2082903 1.864641 0.77718747
3.2082903 1.864641 0.82699996
3.2082903 1.864641 0.87681246
3.2082903 1.864641 0.92662495
3.2082903 1.864641 0.97643745
3.2082903 1.864641 1.02625
3.2082903 1.8149171 0.97643745
3.2082903 1.8149171 1.02625
3.2082903 1.7651935 0.97643745
3.2082903 1.7651935 1.02625
3.2082903 1.7154696 0.97643745
3.2082903 1.7154696 1.02625
3.2082903 1.665746 0.97643745
3.2082903 1.665746 1.02625
3.2082903 1.6160221 0.97643745
3.2082903 1.6160221 1.02625
3.2082903 1.5662985 0.97643745
3.2082903 1.5662985 1.02625
3.2082903 1.5165746 0.97643745
3.2082903 1.5165746 1.02625
3.2082903 1.466851 0.97643745
3.2082903 1.466851 1.02625
3.2082903 1.4171271 0.97643745
3.2082903 1.4171271 1.02625
3.2082903 1.3674035 0.97643745
3.2082903 1.3674035 1.02625
3.2082903 1.3176796 0.97643745
3.2082903 1.3176796 1.02625
3.2082903 1.2679558 0.97643745
3.2082903 1.2679558 1.02625
3.2082903 1.2182322 0.97643745
3.2082903 1.2182322 1.02625
3.2082903 1.1685083 0.97643745
3.2082903 1.1685083 1.02625
3.2082903 1.1187847 0.029999999
3.2082903 1.1187847 0.079812497
3.2082903 1.1187847 0.12962499
3.2082903 1.1187847 0.1794375
3.2082903 1.1187847 0.22925
3.2082903 1.1187847 0.27906248
3.2082903 1.1187847 0.32887501
3.2082903 1.1187847 0.3786875
3.2082903 1.1187847 0.4285
3.2082903 1.1187847 0.47831249
3.2082903 1.1187847 0.52812499
3.2082903 1.1187847 0.57793748
3.2082903 1.1187847 0.62774998
3.2082903 1.1187847 0.67756248
3.2082903 1.1187847 0.72737497
3.2082903 1.1187847 0.77718747
3.2082903 1.1187847 0.82699996
3.2082903 1.1187847 0.87681246
3.2082903 1.1187847 0.92662495
3.2082903 1.1187847 0.97643745
3.2082903 1.1187847 1.02625
